<?xml version="1.0" encoding="utf-8"?>
<!-- Generator: Adobe Illustrator 26.0.1, SVG Export Plug-In . SVG Version: 6.00 Build 0)  -->
<svg version="1.1" id="Layer_1" xmlns="http://www.w3.org/2000/svg" xmlns:xlink="http://www.w3.org/1999/xlink" x="0px" y="0px"
	 viewBox="0 0 280 40" style="enable-background:new 0 0 280 40;" xml:space="preserve">
<g>
	<g>
		<path d="M16.6,3.38h5.04L25.86,15l4.22-11.62h5.09L29.32,18.5l5.09,12.58L45.06,3.24h5.86L37,37.32h-4.7l-6.38-15.26l-6.43,15.26
			h-4.7L0.85,3.24h5.86l10.66,27.84l5.09-12.58L16.6,3.38z"/>
		<path d="M68.39,3.24h5.09l13.25,34.08h-5.66l-3.33-9.26H64.1l-3.35,9.26h-5.66L68.39,3.24z M76.3,24.07L70.93,9.14l-5.39,14.93
			H76.3z"/>
		<path d="M114.71,11.25c-0.29-0.35-0.74-0.73-1.37-1.13c-0.62-0.4-1.34-0.77-2.16-1.1c-0.82-0.34-1.71-0.62-2.69-0.86
			c-0.98-0.24-1.98-0.36-3-0.36c-2.24,0-3.9,0.41-4.99,1.24c-1.09,0.83-1.63,1.97-1.63,3.44c0,1.08,0.3,1.94,0.91,2.58
			c0.61,0.64,1.54,1.15,2.81,1.55c1.26,0.4,2.82,0.82,4.68,1.27c2.34,0.54,4.34,1.19,6.02,1.96c1.68,0.76,2.98,1.77,3.89,3.01
			c0.91,1.24,1.37,2.9,1.37,4.97c0,1.69-0.33,3.15-0.98,4.4c-0.66,1.24-1.56,2.25-2.71,3.03c-1.15,0.78-2.48,1.36-3.98,1.74
			c-1.5,0.38-3.12,0.57-4.85,0.57c-1.7,0-3.38-0.18-5.06-0.55c-1.68-0.37-3.28-0.9-4.8-1.58c-1.52-0.69-2.94-1.53-4.25-2.52
			l2.5-4.61c0.38,0.42,0.98,0.87,1.78,1.37c0.8,0.5,1.72,0.97,2.76,1.42c1.04,0.45,2.18,0.83,3.41,1.13
			c1.23,0.3,2.49,0.46,3.77,0.46c2.14,0,3.78-0.37,4.92-1.12c1.14-0.75,1.7-1.83,1.7-3.26c0-1.12-0.38-2.01-1.13-2.7
			c-0.75-0.68-1.82-1.27-3.22-1.74s-3.06-0.96-5.02-1.43c-2.24-0.57-4.11-1.23-5.62-1.96c-1.5-0.73-2.62-1.66-3.36-2.77
			c-0.74-1.12-1.1-2.57-1.1-4.35c0-2.23,0.54-4.12,1.61-5.67c1.07-1.54,2.55-2.71,4.44-3.49c1.89-0.78,3.98-1.17,6.29-1.17
			c1.54,0,3,0.17,4.39,0.5c1.39,0.34,2.69,0.79,3.89,1.37c1.2,0.58,2.26,1.23,3.19,1.97L114.71,11.25z"/>
		<path d="M156.13,37.32V13.03L146.1,31.46h-3.17L132.9,13.03v24.29h-5.42V3.24h5.76l11.28,20.78L155.8,3.24h5.76v34.08H156.13z"/>
		<path d="M182.68,3.24h5.09l13.25,34.08h-5.66l-3.33-9.26h-13.63l-3.35,9.26h-5.66L182.68,3.24z M190.59,24.07l-5.37-14.93
			l-5.39,14.93H190.59z"/>
		<path d="M208.83,37.32V3.24h14.83c1.54,0,2.94,0.32,4.22,0.96c1.28,0.64,2.39,1.49,3.34,2.54c0.94,1.06,1.68,2.25,2.21,3.58
			c0.53,1.33,0.79,2.66,0.79,4.01c0,1.54-0.27,2.98-0.82,4.34c-0.54,1.36-1.32,2.54-2.33,3.53c-1.01,0.99-2.18,1.71-3.53,2.16
			l8.02,12.96h-6.05l-7.39-11.86h-7.87v11.86H208.83z M214.26,20.71h9.36c0.99,0,1.87-0.3,2.64-0.89c0.77-0.59,1.38-1.37,1.82-2.33
			c0.45-0.96,0.67-2.02,0.67-3.17c0-1.18-0.26-2.26-0.79-3.22c-0.53-0.96-1.19-1.72-1.99-2.28c-0.8-0.56-1.68-0.84-2.64-0.84h-9.07
			V20.71z"/>
		<path d="M244.16,37.32V3.24h22.66v4.75h-17.23v10.18h14.45v4.42h-14.45v14.74H244.16z"/>
	</g>
</g>
</svg>
